<svg height="512pt" viewBox="0 -23 512.00072 512" width="512pt" xmlns="http://www.w3.org/2000/svg"><path d="m511.769531 206.25c-.359375-5.785156-3.957031-10.867188-9.285156-13.15625-5.328125-2.285156-11.496094-1.371094-15.9375 2.359375-.613281.511719-61.953125 51.195313-143.214844 51.195313-33.582031 0-59.46875-8.824219-75.554687-16.441407 28.882812-24.574219 46.070312-60.875 46.070312-99.550781 0-72.042969-58.613281-130.65625-130.65625-130.65625-62.398437 0-114.710937 43.972656-127.601562 102.550781l-31.546875-21.617187c-6.996094-4.796875-16.558594-3.011719-21.351563 3.984375-4.796875 7-3.011718 16.558593 3.988282 21.355469l33.710937 23.101562-33.710937 23.101562c-7 4.796876-8.785157 14.355469-3.988282 21.351563 2.976563 4.34375 7.789063 6.679687 12.683594 6.679687 2.992188 0 6.015625-.871093 8.667969-2.691406l31.089843-21.304687c4.199219 20.753906 13.398438 40.226562 26.816407 56.683593-39.199219 24.886719-63.578125 68.308594-63.578125 115.710938 0 75.574219 61.484375 137.058594 137.058594 137.058594h109.308593c77.683594 0 138.832031-23.148438 181.746094-68.796875 71.515625-76.082031 65.574219-186.265625 65.285156-190.917969zm-87.667969 169.875c-36.875 39.230469-90.492187 59.121094-159.363281 59.121094h-109.308593c-58.636719 0-106.339844-47.703125-106.339844-106.339844 0-42.40625 25.15625-80.71875 64.09375-97.597656 4.824218-2.09375 8.242187-6.507813 9.0625-11.703125.816406-5.191407-1.078125-10.445313-5.023438-13.917969-21.585937-18.996094-33.964844-46.34375-33.964844-75.03125 0-55.105469 44.828126-99.9375 99.933594-99.9375 55.109375 0 99.9375 44.832031 99.9375 99.9375 0 36.140625-19.632812 69.578125-51.234375 87.261719-4.460937 2.496093-7.386719 7.046875-7.808593 12.140625-.417969 5.09375 1.722656 10.0625 5.710937 13.253906 1.738281 1.390625 43.363281 34.054688 113.539063 34.054688 59.566406 0 108.664062-23.09375 136.9375-40.261719-2.964844 34.953125-14.386719 94.570312-56.171876 139.019531zm0 0"/><path d="m161.808594 91.6875c-13.738282 0-26.65625 5.351562-36.371094 15.066406-6 5.996094-6 15.722656 0 21.71875 5.996094 6 15.722656 6 21.722656 0 3.910156-3.910156 9.113282-6.066406 14.648438-6.066406s10.738281 2.15625 14.652344 6.066406c3 3 6.929687 4.5 10.859374 4.5 3.929688 0 7.863282-1.5 10.863282-4.5 5.996094-5.996094 5.996094-15.722656 0-21.71875-9.71875-9.714844-22.636719-15.066406-36.375-15.066406zm0 0"/></svg>