<svg height="512pt" viewBox="0 0 512 512" width="512pt" xmlns="http://www.w3.org/2000/svg"><path d="m256 497c-64.375 0-124.894531-25.066406-170.414062-70.585938-45.519532-45.519531-70.585938-106.042968-70.585938-170.414062s25.066406-124.894531 70.585938-170.414062c45.519531-45.519532 106.039062-70.585938 170.414062-70.585938s124.894531 25.066406 170.414062 70.585938c45.519532 45.519531 70.585938 106.042968 70.585938 170.414062s-25.066406 124.894531-70.585938 170.414062c-45.519531 45.519532-106.039062 70.585938-170.414062 70.585938zm0-452c-116.347656 0-211 94.652344-211 211s94.652344 211 211 211 211-94.652344 211-211-94.652344-211-211-211zm0 0" fill="#ff455a"/><path d="m467 256c0 116.347656-94.652344 211-211 211v30c64.375 0 124.894531-25.066406 170.414062-70.585938 45.519532-45.519531 70.585938-106.042968 70.585938-170.414062s-25.066406-124.894531-70.585938-170.414062c-45.519531-45.519532-106.039062-70.585938-170.414062-70.585938v30c116.347656 0 211 94.652344 211 211zm0 0" fill="#bf0032"/><path d="m256 60c-8.285156 0-15-6.714844-15-15v-30c0-8.285156 6.714844-15 15-15s15 6.714844 15 15v30c0 8.285156-6.714844 15-15 15zm0 0" fill="#656e73"/><path d="m256 512c-8.285156 0-15-6.714844-15-15v-30c0-8.285156 6.714844-15 15-15s15 6.714844 15 15v30c0 8.285156-6.714844 15-15 15zm0 0" fill="#656e73"/><path d="m271 45v-30c0-8.285156-6.714844-15-15-15v60c8.285156 0 15-6.714844 15-15zm0 0" fill="#525c5c"/><path d="m271 497v-30c0-8.285156-6.714844-15-15-15v60c8.285156 0 15-6.714844 15-15zm0 0" fill="#525c5c"/><path d="m45 271h-30c-8.285156 0-15-6.714844-15-15s6.714844-15 15-15h30c8.285156 0 15 6.714844 15 15s-6.714844 15-15 15zm0 0" fill="#656e73"/><path d="m497 271h-30c-8.285156 0-15-6.714844-15-15s6.714844-15 15-15h30c8.285156 0 15 6.714844 15 15s-6.714844 15-15 15zm0 0" fill="#525c5c"/><path d="m158.519531 146h-52.519531c-8.285156 0-15 6.714844-15 15 0 30.328125 24.671875 55 55 55h12.542969zm0 0" fill="#ff455a"/><path d="m296 426h-58.945312c-52.820313 0-95.910157-42.496094-96.054688-94.734375-.082031-29.828125 14.011719-57.515625 36.855469-75.269531-22.765625-17.703125-36.855469-45.285156-36.855469-74.996094 0-26.328125 10.523438-50.808594 29.632812-68.933594 19.09375-18.117187 44.140626-27.316406 70.5-25.929687 49.527344 2.617187 88.996094 43.546875 89.851563 93.1875.394531 22.550781-7.351563 44.53125-21.515625 61.832031 26.4375.402344 39.597656-1.929688 90.589844-23.929688 4.636718-2 9.964844-1.535156 14.183594 1.238282 4.21875 2.777344 6.757812 7.484375 6.757812 12.535156v70c0 68.925781-56.074219 125-125 125zm-4.632812-187.324219h.011718zm0 0" fill="#ffe54e"/><path d="m226 166c0 8.285156-6.714844 15-15 15s-15-6.714844-15-15 6.714844-15 15-15 15 6.714844 15 15zm0 0" fill="#656e73"/><path d="m414.242188 218.46875c-4.21875-2.773438-9.550782-3.242188-14.183594-1.242188-50.996094 22.003907-64.15625 24.332032-90.589844 23.929688 14.164062-17.300781 21.90625-39.277344 21.515625-61.832031-.769531-44.550781-32.652344-82.070313-74.984375-91.1875v337.863281h40c68.925781 0 125-56.074219 125-125v-70c0-5.050781-2.539062-9.757812-6.757812-12.53125zm0 0" fill="#ffbd1c"/></svg>